<?xml version="1.0" standalone="no"?>
<!DOCTYPE svg PUBLIC "-//W3C//DTD SVG 20010904//EN"
 "http://www.w3.org/TR/2001/REC-SVG-20010904/DTD/svg10.dtd">
<svg version="1.0" xmlns="http://www.w3.org/2000/svg"
 width="360.000000pt" height="360.000000pt" viewBox="0 0 360.000000 360.000000"
 preserveAspectRatio="xMidYMid meet">

<g transform="translate(0.000000,360.000000) scale(0.100000,-0.100000)"
fill="#000000" stroke="none">
<path d="M1660 3074 c-281 -43 -486 -137 -687 -316 -101 -90 -194 -201 -252
-302 l-43 -76 28 -23 c15 -12 69 -53 119 -91 49 -38 119 -93 155 -121 36 -28
77 -59 91 -69 l27 -17 31 67 c44 93 108 180 189 255 88 81 158 123 269 162 75
26 106 31 214 35 105 4 139 1 208 -17 96 -25 174 -62 251 -120 30 -23 59 -41
65 -41 6 0 89 79 185 175 200 201 194 173 62 268 -232 167 -456 238 -740 236
-81 -1 -158 -3 -172 -5z"/>
<path d="M1834 2027 c-2 -7 -3 -118 -2 -247 l3 -235 325 -1 c287 -1 326 1 338
15 12 15 13 14 8 -1 -3 -11 0 -18 9 -18 10 0 13 -12 12 -44 -1 -24 -4 -40 -7
-35 -4 5 -12 -8 -19 -29 -25 -71 -89 -167 -154 -229 l-64 -62 88 -71 c48 -38
91 -70 95 -70 4 0 14 -8 23 -18 9 -9 43 -37 76 -61 33 -24 71 -54 85 -67 22
-20 27 -21 44 -8 11 8 17 14 13 14 -3 0 15 21 41 46 26 25 40 43 32 39 -8 -4
-3 3 12 16 68 61 176 279 218 445 35 136 58 363 38 375 -7 5 -8 9 -3 9 15 0
-2 232 -18 242 -7 4 -277 8 -600 8 -466 0 -589 -3 -593 -13z m193 -3 c-3 -3
-12 -4 -19 -1 -8 3 -5 6 6 6 11 1 17 -2 13 -5z m970 -16 c-3 -8 -6 -5 -6 6 -1
11 2 17 5 13 3 -3 4 -12 1 -19z m-854 -445 c-13 -2 -33 -2 -45 0 -13 2 -3 4
22 4 25 0 35 -2 23 -4z m174 -9 c-3 -3 -12 -4 -19 -1 -8 3 -5 6 6 6 11 1 17
-2 13 -5z m230 -46 c-3 -8 -6 -5 -6 6 -1 11 2 17 5 13 3 -3 4 -12 1 -19z m470
-20 c-3 -8 -6 -5 -6 6 -1 11 2 17 5 13 3 -3 4 -12 1 -19z m-9 -63 c-3 -3 -9 2
-12 12 -6 14 -5 15 5 6 7 -7 10 -15 7 -18z m-500 -30 c-6 -14 -13 -23 -15 -21
-5 5 15 46 22 46 3 0 -1 -11 -7 -25z m-68 -129 c0 -3 -4 -8 -10 -11 -5 -3 -10
-1 -10 4 0 6 5 11 10 11 6 0 10 -2 10 -4z m487 -68 c-3 -7 -5 -2 -5 12 0 14 2
19 5 13 2 -7 2 -19 0 -25z m-577 -33 c-7 -9 -15 -13 -17 -11 -6 6 20 36 26 30
2 -2 -2 -10 -9 -19z m32 -7 c-7 -7 -12 -8 -12 -2 0 14 12 26 19 19 2 -3 -1
-11 -7 -17z m515 0 c-3 -8 -6 -5 -6 6 -1 11 2 17 5 13 3 -3 4 -12 1 -19z m-27
-67 c-5 -11 -15 -23 -21 -27 -6 -3 -3 5 6 20 20 30 30 35 15 7z m-46 -62 c-3
-5 -10 -7 -15 -3 -5 3 -7 10 -3 15 3 5 10 7 15 3 5 -3 7 -10 3 -15z"/>
<path d="M940 876 c0 -2 8 -10 18 -17 15 -13 16 -12 3 4 -13 16 -21 21 -21 13z"/>
</g>
</svg>
